<?xml version="1.0" encoding="UTF-8"?> <svg xmlns="http://www.w3.org/2000/svg" width="254" height="60" viewBox="0 0 254 60" fill="none"><path d="M40.3586 35.8569C38.3095 35.8569 37.3295 34.8378 37.3295 32.7994V7.41233C37.3295 5.37395 38.3095 4.35477 40.3586 4.35477H52.7423C53.9896 4.35477 55.1478 4.63273 56.2169 5.09599C57.286 5.55926 58.1769 6.30049 58.8896 7.13437C59.6915 7.96825 60.226 8.98744 60.6715 10.0993C61.1169 11.2111 61.2951 12.5083 61.2951 13.8054C61.2951 16.3997 60.5824 18.1601 59.0678 19.9205C60.5824 21.681 61.2951 23.812 61.2951 26.4063C61.2951 27.7034 61.1169 29.0006 60.6715 30.1124C60.226 31.2243 59.6024 32.2435 58.8896 33.0773C58.0878 33.9112 57.1969 34.5598 56.2169 35.0231C55.1478 35.4863 53.9896 35.7643 52.8314 35.7643L40.3586 35.8569ZM42.9422 10.1919V17.4189H52.7423C53.1878 17.4189 53.6332 17.3263 53.9896 17.1409C54.346 16.9556 54.7023 16.6777 54.8805 16.3071C55.0587 15.9365 55.326 15.5658 55.4151 15.1952C55.5041 14.732 55.5932 14.2687 55.5932 13.8054C55.5932 13.3422 55.5041 12.8789 55.4151 12.4156C55.326 11.9524 55.0587 11.5817 54.8805 11.3038C54.6132 10.9332 54.346 10.7479 53.9005 10.4699C53.5441 10.2846 53.0987 10.1919 52.6532 10.1919H42.9422ZM42.9422 30.0198H52.7423C53.1878 30.0198 53.6332 29.9271 53.9896 29.7418C54.346 29.5565 54.7023 29.2785 54.8805 29.0006C55.1478 28.63 55.326 28.2594 55.4151 27.8887C55.5041 27.4255 55.5932 26.9622 55.5932 26.4989C55.5932 26.0357 55.5041 25.5724 55.4151 25.1091C55.326 24.6459 55.0587 24.2753 54.7914 23.9046C54.5241 23.534 54.2569 23.2561 53.8114 23.0708C53.455 22.8855 53.0096 22.7928 52.5641 22.7928H42.7641L42.9422 30.0198ZM66.8188 7.41233C66.8188 5.37395 67.7988 4.44742 69.7588 4.44742H72.3425V7.22702C72.3425 9.2654 71.3624 10.2846 69.3133 10.2846H66.8188V7.41233ZM66.8188 15.3805C66.8188 13.4348 67.7988 12.4156 69.7588 12.4156H72.3425V35.9496H69.7588C67.7988 35.9496 66.8188 34.9304 66.8188 32.9847V15.3805ZM78.5789 15.3805C78.5789 13.3422 79.5589 12.4156 81.5189 12.4156H84.1025V21.2177H84.9935C85.3498 21.2177 85.7062 21.2177 85.9735 21.2177C86.2407 21.2177 86.5971 21.125 86.7753 20.8471L90.6953 14.2687C91.0517 13.7128 91.4971 13.2495 92.0317 12.8789C92.5662 12.5083 93.1008 12.4156 93.7244 12.4156H98.179L92.4771 22.0516C92.3881 22.2369 92.2099 22.4222 92.0317 22.7002C92.6553 23.0708 93.1899 23.6267 93.6353 24.1826C94.0808 24.8312 94.5262 25.4798 94.8826 26.3136L98.8917 35.8569H95.239C94.5263 35.8569 93.8135 35.6716 93.3681 35.3937C92.9226 35.1157 92.4771 34.6524 92.2099 34.0965L89.8935 28.63C89.5371 27.7961 88.9135 27.0549 88.0226 27.0549H84.1025V35.9496H81.5189C79.5589 35.9496 78.5789 34.9304 78.5789 32.9847C78.5789 32.892 78.5789 15.3805 78.5789 15.3805ZM141.478 11.8597C142.903 11.8597 144.239 12.045 145.487 12.5083C146.734 12.9715 147.892 13.6201 148.961 14.5466C151.188 16.4924 152.347 18.9014 152.347 21.681V36.0423H150.476C149.318 36.0423 148.516 35.579 147.892 34.6524C147.001 35.3937 145.932 35.9496 144.863 36.2276C143.794 36.5982 142.636 36.6908 141.478 36.6908C140.052 36.6908 138.627 36.4129 137.29 35.9496C135.954 35.4863 134.796 34.7451 133.816 33.8186C132.836 32.892 132.034 31.8728 131.499 30.6684C130.876 29.4639 130.608 28.1667 130.608 26.8696V21.681C130.608 18.9014 131.767 16.4924 133.994 14.5466C135.063 13.6201 136.221 12.9715 137.468 12.5083C138.716 12.045 140.052 11.8597 141.478 11.8597ZM145.398 18.9014C144.328 17.9748 142.992 17.5116 141.478 17.5116C140.765 17.5116 140.141 17.6042 139.517 17.7895C138.894 17.9748 138.27 18.2528 137.825 18.6234C137.379 18.994 136.934 19.4573 136.667 19.9205C136.399 20.3838 136.221 20.9397 136.221 21.4957V26.6842C136.221 27.2402 136.399 27.7961 136.667 28.2594C136.934 28.7226 137.379 29.1859 137.825 29.5565C138.359 29.9271 138.894 30.2051 139.517 30.3904C140.141 30.5757 140.854 30.6684 141.478 30.6684C142.19 30.6684 142.814 30.5757 143.438 30.3904C144.061 30.2051 144.685 29.9271 145.13 29.5565C145.576 29.1859 146.021 28.7226 146.288 28.2594C146.556 27.7961 146.734 27.2402 146.734 26.6842V21.4957C146.734 20.6618 146.288 19.7352 145.398 18.9014ZM161.612 35.8569C159.652 35.8569 158.583 34.8378 158.583 32.7994V7.41233C158.583 5.37395 159.563 4.35477 161.612 4.35477H164.196V16.9556H176.401V7.41233C176.401 5.37395 177.381 4.35477 179.431 4.35477H182.014V35.8569H179.431C177.381 35.8569 176.401 34.8378 176.401 32.7994V22.7928H164.196V35.8569H161.612ZM107.355 35.8569C105.395 35.8569 104.326 34.8378 104.326 32.7994V15.3805C104.326 13.3422 105.306 12.323 107.355 12.323H109.939V21.125H119.472V15.2879C119.472 13.2495 120.452 12.2303 122.501 12.2303H125.085V35.6716H122.501C120.452 35.6716 119.472 34.6524 119.472 32.6141V27.0549H109.939V35.8569H107.355ZM198.318 11.8597C199.743 11.8597 201.08 12.045 202.327 12.5083C203.574 12.9715 204.733 13.6201 205.802 14.5466C208.029 16.4924 209.187 18.9014 209.187 21.681V26.8696C209.187 28.2594 208.92 29.5565 208.296 30.761C207.673 31.9655 206.871 33.0773 205.802 34.0039C204.733 34.8378 203.663 35.4863 202.327 35.9496C201.08 36.4129 199.743 36.6908 198.318 36.6908C196.892 36.6908 195.467 36.4129 194.131 35.9496C192.794 35.3937 191.636 34.7451 190.656 33.8186C189.676 32.892 188.874 31.8728 188.34 30.6684C187.716 29.4639 187.449 28.1667 187.449 26.8696V21.681C187.449 18.9014 188.607 16.4924 190.834 14.5466C191.903 13.6201 193.062 12.9715 194.309 12.5083C195.556 12.045 196.892 11.8597 198.318 11.8597ZM202.238 18.9014C201.169 17.9748 199.832 17.5116 198.318 17.5116C197.605 17.5116 196.982 17.6042 196.358 17.7895C195.734 17.9748 195.111 18.2528 194.665 18.6234C194.22 18.994 193.774 19.4573 193.507 19.9205C193.24 20.3838 193.062 20.9397 193.062 21.4957V26.6842C193.062 27.2402 193.24 27.7961 193.507 28.2594C193.774 28.7226 194.22 29.1859 194.665 29.5565C195.2 29.9271 195.734 30.2051 196.358 30.3904C196.982 30.5757 197.694 30.6684 198.318 30.6684C199.031 30.6684 199.654 30.5757 200.278 30.3904C200.902 30.2051 201.525 29.9271 201.971 29.5565C202.416 29.1859 202.862 28.7226 203.129 28.2594C203.396 27.7961 203.574 27.2402 203.574 26.6842V21.4957C203.663 20.6618 203.218 19.7352 202.238 18.9014ZM216.493 35.9496C214.978 35.9496 214.265 35.2084 214.265 33.7259V14.732C214.265 13.2495 214.978 12.5083 216.493 12.5083H227.896C228.787 12.5083 229.678 12.6936 230.391 13.0642C231.193 13.4348 231.816 13.8981 232.351 14.5466C232.885 15.1952 233.331 15.9365 233.687 16.7703C234.044 17.6042 234.133 18.5307 234.133 19.4573C234.133 21.403 233.598 22.9781 232.44 24.2753C233.509 25.5724 234.133 27.1475 234.133 29.0932C234.133 30.1124 233.955 31.039 233.687 31.8728C233.42 32.7067 232.885 33.448 232.351 34.0965C231.816 34.7451 231.104 35.2084 230.391 35.579C229.589 35.9496 228.787 36.1349 227.896 36.1349L216.493 35.9496ZM219.7 17.5116V21.3103H227.184C227.451 21.3103 227.629 21.2177 227.896 21.125C228.074 21.0324 228.253 20.8471 228.431 20.6618C228.609 20.4765 228.698 20.2912 228.698 20.0132C228.787 19.7352 228.787 19.5499 228.787 19.272C228.787 18.994 228.787 18.8087 228.698 18.5307C228.609 18.2528 228.52 18.0675 228.431 17.8822C228.342 17.6969 228.164 17.6042 227.896 17.4189C227.718 17.3262 227.451 17.2336 227.184 17.2336H219.7V17.5116ZM219.7 30.9463H227.184C227.451 30.9463 227.629 30.8537 227.896 30.761C228.074 30.6683 228.253 30.483 228.431 30.3904C228.52 30.2051 228.698 30.0198 228.698 29.7418C228.787 29.4639 228.787 29.2785 228.787 29.0006C228.787 28.7226 228.787 28.5373 228.698 28.2594C228.609 27.9814 228.52 27.8887 228.431 27.7034C228.253 27.5181 228.164 27.4255 227.896 27.2402C227.718 27.1475 227.451 27.0549 227.184 27.0549H219.7V30.9463ZM239.211 7.41233C239.211 5.37395 240.191 4.44742 242.151 4.44742H244.735V7.22702C244.735 9.2654 243.755 10.2846 241.795 10.2846H239.3L239.211 7.41233ZM239.211 15.3805C239.211 13.4348 240.191 12.4156 242.151 12.4156H244.735V35.8569H242.151C240.191 35.8569 239.211 34.8378 239.211 32.892V15.3805Z" fill="#070034"></path><path d="M250.08 1.8531H249.1V4.44739H248.655V1.8531H247.675V1.48248H250.08V1.8531V1.8531ZM252.396 3.98413L252.485 3.70617L252.575 3.42821L253.376 1.48248H254V4.44739H253.555V1.94575L253.466 2.13106L253.287 2.50167L252.485 4.35474H252.129L251.327 2.50167C251.238 2.22371 251.149 2.0384 251.149 1.94575V4.44739H250.704V1.48248H251.238L252.04 3.33555C252.218 3.52086 252.307 3.70617 252.396 3.98413Z" fill="white"></path><path d="M0 0V40.2116H27.6184V0H0ZM26.9057 38.0806H25.5693H2.1382H0.801822L2.1382 37.2467V2.96491L0.801822 2.13103H2.1382H25.5693H26.9057L25.5693 2.96491V37.154L26.9057 38.0806Z" fill="#0092FF"></path><path d="M4.18726 35.8569H23.5201V4.26208H4.18726V35.8569ZM6.23636 6.48577H21.3819H22.7183L21.3819 7.31965V32.892L22.7183 33.7259H21.3819H6.23636H4.89999L6.23636 32.892V7.31965L4.89999 6.48577H6.23636Z" fill="#0092FF" fill-opacity="0.8"></path><path d="M19.3328 8.61679H8.2854V31.5949H19.3328V8.61679ZM18.62 29.4638H17.2836H10.4236H9.08723L10.4236 28.6299V11.5817L9.08723 10.7478H10.4236H17.2836H18.62L17.2836 11.5817V28.5373L18.62 29.4638Z" fill="#0092FF" fill-opacity="0.6"></path><path d="M40.7149 52.1639L41.1604 53.3684L43.2095 47.9945H44.5458L41.4276 55.4994C41.1604 56.0553 40.8931 56.4259 40.6258 56.7039C40.2694 56.9819 39.824 57.1672 39.2003 57.1672C38.9331 57.1672 38.6658 57.1672 38.4876 57.0745C38.2203 57.0745 38.0422 56.9819 37.9531 56.8892L38.1312 55.9627C38.2203 55.9627 38.3985 56.0553 38.5767 56.0553C38.7549 56.0553 38.9331 56.148 39.1113 56.148C39.4676 56.148 39.7349 56.0553 39.9131 55.87C40.0913 55.6847 40.2694 55.4994 40.3585 55.2214L40.6258 54.6655L37.6858 47.9945H39.0222L40.7149 52.1639Z" fill="#0092FF"></path><path d="M48.466 52.9051H47.6642V56.9819H46.506V47.9945H47.6642V51.9786H48.3769L51.5842 47.9945H52.9206L49.446 52.2565L53.1878 56.9819H51.7624L48.466 52.9051Z" fill="#0092FF"></path><path d="M55.9495 53.3684V56.9819H54.7913V47.9945H58.0877C58.9786 47.9945 59.6913 48.2724 60.2259 48.7357C60.7604 49.199 61.0277 49.8475 61.0277 50.6814C61.0277 51.5153 60.7604 52.1639 60.2259 52.6271C59.6913 53.0904 58.9786 53.3684 58.0877 53.3684H55.9495V53.3684ZM55.9495 52.4418H58.0877C58.7113 52.4418 59.1568 52.2565 59.424 51.9786C59.6913 51.608 59.8695 51.2373 59.8695 50.7741C59.8695 50.3108 59.6913 49.8475 59.424 49.4769C59.1568 49.1063 58.7113 49.0137 58.0877 49.0137H55.9495V52.4418Z" fill="#0092FF"></path><path d="M66.6406 54.6655H63.3442L62.5423 56.9819H61.3842L64.5024 47.9945H65.4824L68.5115 56.9819H67.3533L66.6406 54.6655ZM63.7896 53.6463H66.3733L65.126 49.7549L63.7896 53.6463Z" fill="#0092FF"></path><path d="M70.3826 47.068H69.0463V45.8635H70.3826V47.068ZM71.719 56.9819H70.5608V47.9945H71.719V56.9819ZM73.1445 47.068H71.8081V45.8635H73.1445V47.068Z" fill="#0092FF"></path><path d="M80.8952 56.9819H79.737V52.9978H75.5497V56.9819H74.3915V47.9945H75.5497V52.0712H79.737V47.9945H80.8952V56.9819Z" fill="#0092FF"></path><path d="M89.6261 54.1096C89.6261 55.0361 89.3589 55.6847 88.8243 56.2406C88.2007 56.7965 87.4879 57.0745 86.5079 57.0745C85.5279 57.0745 84.7261 56.7039 84.1025 55.9626C83.4788 55.2214 83.2115 54.2949 83.2115 53.183V51.6079C83.2115 50.4961 83.4788 49.5696 84.1025 48.8283C84.7261 48.0871 85.5279 47.7165 86.5079 47.7165C87.4879 47.7165 88.2898 47.9944 88.8243 48.5504C89.448 49.1063 89.7152 49.8475 89.6261 50.6814H88.468C88.468 50.0328 88.2898 49.5696 87.9334 49.1989C87.577 48.8283 87.0425 48.643 86.4188 48.643C85.7952 48.643 85.2606 48.921 84.8152 49.4769C84.4588 50.0328 84.1916 50.6814 84.1916 51.5153V53.0904C84.1916 53.9243 84.3697 54.5728 84.8152 55.1288C85.2606 55.6847 85.7061 55.9626 86.4188 55.9626C87.0425 55.9626 87.577 55.7773 87.9334 55.4067C88.2898 55.0361 88.468 54.5728 88.468 53.9243C88.468 54.1096 89.6261 54.1096 89.6261 54.1096Z" fill="#0092FF"></path><path d="M92.7444 51.5153H94.8826C95.7735 51.5153 96.4862 51.7933 97.0208 52.2565C97.5553 52.7198 97.8226 53.3684 97.8226 54.2023C97.8226 55.0361 97.5553 55.6847 97.0208 56.148C96.4862 56.6113 95.7735 56.8892 94.8826 56.8892H91.5862V47.9018H92.7444V51.5153ZM92.7444 52.4418V55.9627H94.8826C95.5062 55.9627 95.8626 55.7774 96.2189 55.4068C96.4862 55.0361 96.6644 54.6655 96.6644 54.1096C96.6644 53.6463 96.4862 53.1831 96.2189 52.9051C95.9517 52.5345 95.5062 52.4418 94.8826 52.4418C94.8826 52.4418 92.7444 52.4418 92.7444 52.4418Z" fill="#0092FF"></path><path d="M101.743 52.9051H100.941V56.9819H99.7827V47.9945H100.941V51.9786H101.565L104.772 47.9945H106.108L102.634 52.2565L106.375 56.9819H104.95L101.743 52.9051Z" fill="#0092FF"></path><path d="M113.414 47.9945H114.572V56.9819H113.414V50.1255L109.226 56.9819H108.068V47.9945H109.226V54.8508L113.414 47.9945Z" fill="#0092FF"></path><path d="M122.501 47.9945H123.659V56.9819H122.501V50.1255L118.314 56.9819H117.156V47.9945H118.314V54.8508L122.501 47.9945ZM122.145 45.4002C122.145 45.9561 122.056 46.3267 121.699 46.6047C121.343 46.8826 120.986 47.0679 120.363 47.0679C119.828 47.0679 119.383 46.8826 119.026 46.6047C118.67 46.3267 118.581 45.9561 118.581 45.4002H119.472C119.472 45.6781 119.561 45.8634 119.65 46.0487C119.828 46.2341 120.006 46.3267 120.274 46.3267C120.541 46.3267 120.808 46.2341 120.897 46.0487C121.076 45.8634 121.076 45.6781 121.076 45.4002C121.254 45.4002 122.145 45.4002 122.145 45.4002Z" fill="#0092FF"></path><path d="M135.954 50.4035C135.954 50.8667 135.776 51.2373 135.508 51.5153C135.241 51.8859 134.885 52.1639 134.35 52.3492C134.885 52.5345 135.33 52.8124 135.597 53.1831C135.865 53.5537 136.043 54.0169 136.043 54.4802C136.043 55.3141 135.687 55.9627 135.063 56.4259C134.439 56.8892 133.637 57.1672 132.568 57.1672C131.677 57.1672 130.876 56.9819 130.252 56.5186C129.628 56.0553 129.272 55.4067 129.272 54.5729H130.43C130.43 55.0361 130.608 55.4067 131.054 55.7774C131.41 56.148 131.945 56.2406 132.568 56.2406C133.281 56.2406 133.816 56.0553 134.261 55.7774C134.707 55.4994 134.885 55.0361 134.885 54.5729C134.885 54.0169 134.707 53.6463 134.35 53.3684C133.994 53.0904 133.459 52.9978 132.747 52.9978H131.677V52.0712H132.747C133.459 52.0712 133.994 51.9786 134.261 51.7006C134.617 51.4226 134.796 51.052 134.796 50.5888C134.796 50.1255 134.617 49.7549 134.261 49.4769C133.905 49.199 133.37 49.0137 132.657 49.0137C132.123 49.0137 131.588 49.199 131.232 49.4769C130.876 49.7549 130.697 50.1255 130.697 50.5888H129.539C129.539 49.8475 129.807 49.2916 130.43 48.8284C131.054 48.3651 131.767 48.1798 132.657 48.1798C133.637 48.1798 134.528 48.3651 135.063 48.8284C135.687 48.921 135.954 49.5696 135.954 50.4035Z" fill="#0092FF"></path><path d="M142.903 54.6655H139.607L138.805 56.9819H137.647L140.765 47.9945H141.745L144.774 56.9819H143.705L142.903 54.6655ZM139.963 53.6463H142.547L141.299 49.7549L139.963 53.6463Z" fill="#0092FF"></path><path d="M146.645 56.9819V47.9945H149.496C150.387 47.9945 151.099 48.1798 151.634 48.6431C152.169 49.0137 152.436 49.6622 152.436 50.4961C152.436 50.8667 152.347 51.2374 152.079 51.5153C151.812 51.7933 151.545 52.0712 151.189 52.2565C151.723 52.3492 152.169 52.6272 152.525 52.9978C152.881 53.461 153.059 53.9243 153.059 54.4802C153.059 55.3141 152.792 55.9627 152.258 56.3333C151.723 56.7966 151.01 56.9819 150.119 56.9819H146.645V56.9819ZM147.803 51.7933H149.674C150.119 51.7933 150.476 51.7006 150.743 51.4227C151.01 51.1447 151.189 50.8667 151.189 50.4035C151.189 49.9402 151.01 49.5696 150.743 49.2916C150.476 49.0137 150.03 48.921 149.496 48.921H147.803V51.7933V51.7933ZM147.803 52.7198V55.9627H150.03C150.565 55.9627 151.01 55.87 151.278 55.5921C151.545 55.3141 151.723 54.9435 151.723 54.3876C151.723 53.9243 151.545 53.461 151.278 53.1831C151.01 52.9051 150.565 52.7198 150.03 52.7198H149.941H147.803Z" fill="#0092FF"></path><path d="M161.523 53.2757C161.523 54.3876 161.167 55.3141 160.543 56.0553C159.919 56.7966 159.029 57.1672 157.959 57.1672C156.979 57.1672 156.089 56.7966 155.465 56.0553C154.841 55.3141 154.485 54.3876 154.485 53.2757V51.7006C154.485 50.5888 154.841 49.6622 155.465 48.921C156.089 48.1798 156.89 47.8092 157.959 47.8092C159.029 47.8092 159.83 48.1798 160.543 48.921C161.167 49.6622 161.523 50.5888 161.523 51.7006V53.2757ZM160.365 51.608C160.365 50.7741 160.187 50.1255 159.741 49.5696C159.296 49.0137 158.761 48.7357 158.049 48.7357C157.336 48.7357 156.801 49.0137 156.445 49.5696C155.999 50.1255 155.821 50.7741 155.821 51.608V53.1831C155.821 54.017 155.999 54.6655 156.445 55.2215C156.89 55.7774 157.425 56.0553 158.049 56.0553C158.761 56.0553 159.385 55.7774 159.741 55.2215C160.187 54.6655 160.365 54.017 160.365 53.1831V51.608Z" fill="#0092FF"></path><path d="M171.501 59.2055H170.343V56.9819H163.929V59.2055H162.771V56.0553H163.394C163.929 56.0553 164.285 55.6847 164.552 54.9435C164.82 54.2023 164.998 53.0904 165.087 51.608L165.265 47.9945H170.343V56.0553H171.501V59.2055ZM166.334 51.608C166.245 52.6272 166.156 53.5537 165.978 54.2949C165.8 55.0361 165.621 55.5921 165.265 56.0553H169.185V48.921H166.423L166.334 51.608Z" fill="#0092FF"></path><path d="M176.847 53.6464H173.372V52.7198H176.847V53.6464Z" fill="#0092FF"></path><path d="M179.342 56.9819V47.9945H182.192C183.083 47.9945 183.796 48.1798 184.331 48.6431C184.865 49.0137 185.133 49.6622 185.133 50.4961C185.133 50.8667 185.043 51.2374 184.776 51.5153C184.509 51.7933 184.242 52.0712 183.885 52.2565C184.42 52.3492 184.865 52.6272 185.222 52.9978C185.578 53.461 185.756 53.9243 185.756 54.4802C185.756 55.3141 185.489 55.9627 184.954 56.3333C184.42 56.7966 183.707 56.9819 182.816 56.9819H179.342V56.9819ZM180.589 51.7933H182.46C182.905 51.7933 183.262 51.7006 183.529 51.4227C183.796 51.1447 183.974 50.8667 183.974 50.4035C183.974 49.9402 183.796 49.5696 183.529 49.2916C183.262 49.0137 182.816 48.921 182.282 48.921H180.589V51.7933V51.7933ZM180.589 52.7198V55.9627H182.816C183.351 55.9627 183.796 55.87 184.063 55.5921C184.331 55.3141 184.509 54.9435 184.509 54.3876C184.509 53.9243 184.331 53.461 184.063 53.1831C183.796 52.9051 183.351 52.7198 182.816 52.7198H182.727H180.589Z" fill="#0092FF"></path><path d="M193.061 47.9945H194.22V56.9819H193.061V50.1255L188.874 56.9819H187.716V47.9945H188.874V54.8508L193.061 47.9945Z" fill="#0092FF"></path><path d="M197.873 53.3684V56.9819H196.714V47.9945H200.011C200.902 47.9945 201.614 48.2724 202.149 48.7357C202.683 49.199 202.951 49.8475 202.951 50.6814C202.951 51.5153 202.683 52.1639 202.149 52.6271C201.614 53.0904 200.902 53.3684 200.011 53.3684H197.873V53.3684ZM197.873 52.4418H200.011C200.634 52.4418 201.08 52.2565 201.347 51.9786C201.614 51.608 201.793 51.2373 201.793 50.7741C201.793 50.3108 201.614 49.8475 201.347 49.4769C201.08 49.1063 200.634 49.0137 200.011 49.0137H197.873V52.4418V52.4418Z" fill="#0092FF"></path><path d="M211.593 53.2757C211.593 54.3876 211.236 55.3141 210.613 56.0553C209.989 56.7966 209.098 57.1672 208.029 57.1672C207.049 57.1672 206.158 56.7966 205.534 56.0553C204.911 55.3141 204.554 54.3876 204.554 53.2757V51.7006C204.554 50.5888 204.911 49.6622 205.534 48.921C206.158 48.1798 206.96 47.8092 208.029 47.8092C209.098 47.8092 209.9 48.1798 210.613 48.921C211.236 49.6622 211.593 50.5888 211.593 51.7006V53.2757ZM210.345 51.608C210.345 50.7741 210.167 50.1255 209.722 49.5696C209.276 49.0137 208.742 48.7357 208.029 48.7357C207.316 48.7357 206.782 49.0137 206.425 49.5696C205.98 50.1255 205.802 50.7741 205.802 51.608V53.1831C205.802 54.017 205.98 54.6655 206.425 55.2215C206.871 55.7774 207.405 56.0553 208.029 56.0553C208.742 56.0553 209.365 55.7774 209.722 55.2215C210.078 54.6655 210.345 54.017 210.345 53.1831V51.608Z" fill="#0092FF"></path><path d="M218.987 48.921H214.8V51.5153H216.938C217.829 51.5153 218.542 51.7933 219.076 52.2565C219.611 52.7198 219.878 53.3684 219.878 54.2023C219.878 55.0361 219.611 55.6847 219.076 56.148C218.542 56.6113 217.829 56.8892 216.938 56.8892H213.642V47.9018H218.987V48.921ZM214.889 52.4418V55.9627H217.027C217.651 55.9627 218.007 55.7774 218.363 55.4068C218.631 55.0361 218.809 54.6655 218.809 54.1096C218.809 53.6463 218.631 53.1831 218.363 52.9051C218.096 52.5345 217.651 52.4418 217.027 52.4418C217.027 52.4418 214.889 52.4418 214.889 52.4418Z" fill="#0092FF"></path><path d="M228.52 56.9819H227.362V52.9978H223.174V56.9819H222.016V47.9945H223.174V52.0712H227.362V47.9945H228.52V56.9819Z" fill="#0092FF"></path><path d="M236.449 47.9945H237.607V56.9819H236.449V50.1255L232.262 56.9819H231.015V47.9945H232.173V54.8508L236.449 47.9945Z" fill="#0092FF"></path><path d="M241.973 52.9051H241.171V56.9819H240.013V47.9945H241.171V51.9786H241.795L245.002 47.9945H246.338L242.864 52.2565L246.606 56.9819H245.269L241.973 52.9051Z" fill="#0092FF"></path></svg> 